name p02_s_01_labelled_grf.mot
datacolumns 46
datarows 5
range 0.524000 0.526000
endheader
time	1_ground_force_vx	1_ground_force_vy	1_ground_force_vz	1_ground_force_px	1_ground_force_py	1_ground_force_pz	1_ground_torque_x	1_ground_torque_y	1_ground_torque_z	2_ground_force_vx	2_ground_force_vy	2_ground_force_vz	2_ground_force_px	2_ground_force_py	2_ground_force_pz	2_ground_torque_x	2_ground_torque_y	2_ground_torque_z	3_ground_force_vx	3_ground_force_vy	3_ground_force_vz	3_ground_force_px	3_ground_force_py	3_ground_force_pz	3_ground_torque_x	3_ground_torque_y	3_ground_torque_z	4_ground_force_vx	4_ground_force_vy	4_ground_force_vz	4_ground_force_px	4_ground_force_py	4_ground_force_pz	4_ground_torque_x	4_ground_torque_y	4_ground_torque_z	5_ground_force_vx	5_ground_force_vy	5_ground_force_vz	5_ground_force_px	5_ground_force_py	5_ground_force_pz	5_ground_torque_x	5_ground_torque_y	5_ground_torque_z
            0.524000	           -0.092263	           -1.138912	            0.007908	            1.685507	           -0.014676	            0.536362	           -0.146957	            0.019474	           -0.271527	            0.026009	           -0.174200	            0.090597	            0.109736	           -0.000126	            0.234430	            0.063729	            0.038788	           -0.036063	           -0.050895	           -0.308383	            0.143306	           -0.457621	            0.004852	            0.303465	            0.522551	            0.044369	            0.225604	           38.249866	           -8.937924	            1.331177	           -1.364246	            0.012957	            0.295129	           -1.170298	            0.273466	           -0.040729	            0.200533	            0.265708	            0.650186	           -2.332725	            0.019529	            0.213469	            0.219932	            0.220565	            0.061218
            0.524500	           -0.036786	            0.282707	           -0.112671	            1.685507	           -0.014676	            0.536362	           -0.104550	            0.058500	            0.228866	            0.319141	            1.394526	           -0.099071	            0.109736	           -0.000126	            0.234430	            0.339791	           -0.007919	           -0.017101	            0.147147	           -0.313717	           -0.215613	           -0.457621	            0.004852	            0.303465	            0.085075	           -0.039236	           -0.198270	           27.982778	           -4.594083	           -0.631366	           -1.364246	            0.012957	            0.295129	           -0.907009	            0.833349	           -1.524427	            0.238066	           -0.517350	            0.609644	           -2.332725	            0.019529	            0.213469	           -0.007387	            0.210206	            0.008667
            0.525000	           -0.083900	           -0.348180	           -0.031679	            1.685507	           -0.014676	            0.536362	           -0.045189	           -0.051773	            0.338341	            0.107342	           -0.171943	           -0.107928	            0.109736	           -0.000126	            0.234430	           -0.186860	            0.004570	           -0.032064	           -0.056484	           -0.778787	           -0.016646	           -0.457621	            0.004852	            0.303465	           -0.023815	            0.078372	            0.280856	            7.788324	            3.308827	           -0.526687	           -1.364246	            0.012957	            0.295129	            0.018136	           -1.451345	           -0.473165	            0.318044	            0.262843	            0.449889	           -2.332725	            0.019529	            0.213469	            0.099814	            0.231771	           -0.259576
            0.525500	           -0.180650	            1.865871	           -0.193239	            1.685507	           -0.014676	            0.536362	           -0.098401	            0.069665	           -0.002453	           -0.127736	            0.297886	           -0.269168	            0.109736	           -0.000126	            0.234430	           -0.210629	            0.088025	            0.227130	           -0.101575	           -1.246963	           -0.056780	           -0.457621	            0.004852	            0.303465	            0.075774	            0.016324	           -0.104040	          -19.127977	            1.651019	            0.669587	           -1.364246	            0.012957	            0.295129	            0.724747	           -2.042335	           -0.795860	            0.003362	            0.742724	            0.411486	           -2.332725	            0.019529	            0.213469	           -0.123551	            0.234298	            0.543452
            0.526000	            0.114982	           -0.509230	            0.048131	            1.685507	           -0.014676	            0.536362	           -0.149378	            0.013968	            0.074359	            0.030521	            0.453355	            0.134414	            0.109736	           -0.000126	            0.234430	            0.124826	           -0.004889	            0.183323	            0.066641	           -0.470565	            0.182578	           -0.457621	            0.004852	            0.303465	           -0.233815	            0.114642	           -0.147633	          -25.364663	           -3.344580	            0.060443	           -1.364246	            0.012957	            0.295129	            0.962700	           -1.886185	           -0.426972	           -0.038080	           -0.519780	            0.610619	           -2.332725	            0.019529	            0.213469	            0.121914	            0.206966	           -0.228783
